<svg xmlns="http://www.w3.org/2000/svg" xmlns:xlink="http://www.w3.org/1999/xlink" viewBox="0 0 247.13 247.12"><defs><style>.cls-1{fill:url(#linear-gradient);}</style><linearGradient id="linear-gradient" x1="1.15" y1="245.97" x2="213.98" y2="33.14" gradientUnits="userSpaceOnUse"><stop offset="0" stop-color="#4e6c85"/><stop offset="0.22" stop-color="#4e6c85" stop-opacity="0.85"/><stop offset="0.67" stop-color="#4e6c85" stop-opacity="0.46"/><stop offset="0.95" stop-color="#4e6c85" stop-opacity="0.2"/></linearGradient></defs><g id="Layer_2" data-name="Layer 2"><g id="Layer_1-2" data-name="Layer 1"><path class="cls-1" d="M240.43,54.25c-6.38-6.38-16.42-8.3-27.59-5.33l-20,5.36,5.36-20c3-11.16,1.05-21.21-5.32-27.58s-16.43-8.31-27.6-5.33L39.37,35.1c-11.17,3-18.9,9.7-21.24,18.41s1,18.39,9.19,26.56L42,94.71l-20,5.36c-11.15,3-18.89,9.7-21.23,18.41s1,18.39,9.19,26.55l92.18,92.18c6.46,6.47,13.87,9.91,21,9.91a21.32,21.32,0,0,0,5.56-.72c8.7-2.33,15.42-10.07,18.41-21.23l5.36-20,14.64,14.64c6.46,6.46,13.87,9.91,21,9.91a21.31,21.31,0,0,0,5.55-.73c8.71-2.33,15.42-10.07,18.41-21.23L245.76,81.84C248.75,70.68,246.8,60.63,240.43,54.25ZM70.82,102.45l100.89-27-27,100.9-36.49-36.49ZM37.88,69.51c-4.29-4.3-6.23-8.72-5.32-12.13s4.8-6.27,10.67-7.84L169.15,15.8a23.75,23.75,0,0,1,6.13-.89c3,0,5.48.79,7,2.35,2.5,2.5,3,7.29,1.46,13.16l-7.59,28.33-1.27.34L58.62,90.25ZM132.62,221.3c-1.57,5.87-4.43,9.76-7.84,10.67s-7.84-1-12.13-5.32L20.47,134.47c-4.29-4.29-6.23-8.71-5.31-12.13s4.8-6.27,10.67-7.84l28.32-7.59,43,43,43,43ZM231.33,78,197.59,203.9c-1.57,5.86-4.43,9.75-7.85,10.66s-7.83-1-12.12-5.32l-20.74-20.73L188.38,71l28.33-7.59c5.86-1.59,10.66-1,13.16,1.45S232.9,72.11,231.33,78Z"/></g></g></svg>