<svg xmlns="http://www.w3.org/2000/svg" xmlns:xlink="http://www.w3.org/1999/xlink" viewBox="0 0 64 13.56"><defs><style>.cls-1{fill:#19234b;}.cls-2{fill:#4e6c85;}.cls-3{fill:#00ade8;}.cls-4{fill:#69fabc;}.cls-5{fill:url(#radial-gradient);}</style><radialGradient id="radial-gradient" cx="109.31" cy="556.73" r="7.51" gradientTransform="translate(-313.5 476.32) rotate(-135)" gradientUnits="userSpaceOnUse"><stop offset="0" stop-color="#00ade8"/><stop offset="1" stop-color="#69fabc"/></radialGradient></defs><g id="Layer_2" data-name="Layer 2"><g id="Layer_1-2" data-name="Layer 1"><g id="daVinci_black"><path class="cls-1" d="M23.21,1.74V11.86h-.88V10.52a2.28,2.28,0,0,1-.93,1.07,2.77,2.77,0,0,1-1.47.37,3,3,0,0,1-1.62-.45,3,3,0,0,1-1.09-1.28,4.45,4.45,0,0,1-.39-1.92,4.27,4.27,0,0,1,.39-1.88,3,3,0,0,1,1.09-1.26,2.94,2.94,0,0,1,1.62-.44,2.86,2.86,0,0,1,1.47.36,2.28,2.28,0,0,1,.93,1.07V1.74Zm-1.47,8.7a3.3,3.3,0,0,0,.59-2.1,3.35,3.35,0,0,0-.59-2.11,2,2,0,0,0-1.68-.74,2.07,2.07,0,0,0-1.7.73,3.19,3.19,0,0,0-.61,2.09,3.26,3.26,0,0,0,.61,2.12,2,2,0,0,0,1.69.75A2,2,0,0,0,21.74,10.44Z"/><path class="cls-1" d="M30.14,5.39a2.78,2.78,0,0,1,.63,2v4.48h-.86V10.61a2.32,2.32,0,0,1-.88,1,2.5,2.5,0,0,1-1.32.35,2.65,2.65,0,0,1-1.23-.28,2,2,0,0,1-.88-.76,1.85,1.85,0,0,1-.33-1.07,1.75,1.75,0,0,1,.4-1.21A2.5,2.5,0,0,1,27,8a13.47,13.47,0,0,1,2.6-.19h.3V7.31a2.08,2.08,0,0,0-.39-1.39,1.56,1.56,0,0,0-1.22-.43,4.37,4.37,0,0,0-1.21.17,4.75,4.75,0,0,0-1.2.59l-.33-.68A4.36,4.36,0,0,1,26.82,5a4.89,4.89,0,0,1,1.44-.22A2.46,2.46,0,0,1,30.14,5.39Zm-.83,5.18A2.26,2.26,0,0,0,29.91,9V8.48h-.28a14.06,14.06,0,0,0-2.11.12,2.09,2.09,0,0,0-1,.39,1.06,1.06,0,0,0-.3.81,1.24,1.24,0,0,0,.46,1,1.65,1.65,0,0,0,1.13.4A2,2,0,0,0,29.31,10.57Z"/><path class="cls-1" d="M40.41,1.74h1.88L37.78,11.86h-1.5L31.77,1.74h1.91L37,9.56Z"/><path class="cls-1" d="M43,1.58h2V3.35H43Zm.1,10.28v-7h1.79v7Z"/><path class="cls-1" d="M52.68,5.39a3.24,3.24,0,0,1,.62,2.16v4.31H51.5V7.65a1.84,1.84,0,0,0-.31-1.19,1.17,1.17,0,0,0-1-.37A1.63,1.63,0,0,0,49,6.58a1.8,1.8,0,0,0-.46,1.3v4h-1.8v-7h1.75v1a2.43,2.43,0,0,1,1-.91,2.87,2.87,0,0,1,1.36-.31A2.34,2.34,0,0,1,52.68,5.39Z"/><path class="cls-1" d="M56.4,11.53a3,3,0,0,1-1.24-1.27,4,4,0,0,1-.43-1.9,4,4,0,0,1,.45-1.93,3.11,3.11,0,0,1,1.29-1.3,3.84,3.84,0,0,1,1.92-.46,4.84,4.84,0,0,1,1.46.23A3.27,3.27,0,0,1,61,5.54l-.52,1.27a3.35,3.35,0,0,0-.94-.55,2.89,2.89,0,0,0-1-.19,1.83,1.83,0,0,0-1.45.59,2.39,2.39,0,0,0-.52,1.67A2.37,2.37,0,0,0,57.1,10a1.83,1.83,0,0,0,1.45.59,2.89,2.89,0,0,0,1-.19,3.61,3.61,0,0,0,.94-.55L61,11.08a3.12,3.12,0,0,1-1.18.65,4.7,4.7,0,0,1-1.49.24A4,4,0,0,1,56.4,11.53Z"/><path class="cls-1" d="M62,1.58h2V3.35H62Zm.1,10.28v-7h1.79v7Z"/><path class="cls-2" d="M10.21,3.35,1,5.83a1,1,0,0,0-.51,1.9l5.39,5.38c.76.77,1.61.54,1.89-.51Z"/><path class="cls-3" d="M2.86,5.32l6.77,6.77a1,1,0,0,0,1.9-.5l2-7.36c.28-1-.35-1.67-1.39-1.39Z"/><path class="cls-4" d="M8.24,10.71l2.48-9.26C11,.41,10.37-.21,9.33.07L2,2C.93,2.32.7,3.17,1.47,3.93Z"/><polygon class="cls-5" points="2.86 5.32 8.24 10.71 10.21 3.35 2.86 5.32"/></g></g></g></svg>