<?xml version="1.0" encoding="utf-8"?>
<!-- Generator: Adobe Illustrator 15.1.0, SVG Export Plug-In . SVG Version: 6.00 Build 0)  -->
<!DOCTYPE svg PUBLIC "-//W3C//DTD SVG 1.1//EN" "http://www.w3.org/Graphics/SVG/1.1/DTD/svg11.dtd">
<svg version="1.1" id="Ebene_1" xmlns="http://www.w3.org/2000/svg" xmlns:xlink="http://www.w3.org/1999/xlink" x="0px" y="0px"
	 width="88.112px" height="90.909px" viewBox="0 0 88.112 90.909" enable-background="new 0 0 88.112 90.909" xml:space="preserve">
<linearGradient id="SVGID_1_" gradientUnits="userSpaceOnUse" x1="22.2095" y1="75.4043" x2="68.7015" y2="13.4152">
	<stop  offset="0" style="stop-color:#1CADE4"/>
	<stop  offset="1" style="stop-color:#88C8A8"/>
</linearGradient>
<path fill="url(#SVGID_1_)" d="M78.604,38.396l-4.619-4.62v-7.63c0-6.027-4.886-10.912-10.912-10.912h-7.63l-4.165-4.165
	c-4.262-4.261-11.17-4.261-15.431,0l-4.165,4.165h-5.436c-6.025,0-10.911,4.885-10.911,10.912v5.436L9.807,37.11
	c-4.261,4.261-4.261,11.171,0,15.431l5.529,5.529v6.721c0,6.026,4.886,10.912,10.911,10.912h6.722l4.165,4.165
	c4.26,4.261,11.17,4.261,15.431,0l4.165-4.165h6.344c6.026,0,10.912-4.886,10.912-10.912v-6.344l4.619-4.62
	C82.866,49.566,82.866,42.657,78.604,38.396z"/>
</svg>
